<svg id="Layer_1" data-name="Layer 1" xmlns="http://www.w3.org/2000/svg" xmlns:xlink="http://www.w3.org/1999/xlink" viewBox="0 0 4000.79 1449.78"><defs><style>.cls-1,.cls-2{stroke:#000;stroke-miterlimit:10;}.cls-1{stroke-width:10px;}.cls-2{stroke-width:1.11px;}</style></defs><title>row1</title><line class="cls-1" x1="0.39" y1="116.23" x2="4000.39" y2="431.23"/><rect class="cls-2" x="946.1" y="468.48" width="58.5" height="305.5" transform="translate(-28.94 -418.5) rotate(-2.76)"/><rect class="cls-2" x="945.75" y="468.9" width="58.5" height="305.5" transform="translate(-52.79 -374.66) rotate(-5.24)"/><rect class="cls-2" x="2996.15" y="649.54" width="58.5" height="305.5" transform="translate(71.29 -698.68) rotate(4.45)"/><rect class="cls-2" x="2995.75" y="649.92" width="58.5" height="305.5" transform="translate(29.41 -570.22) rotate(1.98)"/><rect class="cls-2" x="1971.13" y="549.52" width="58.5" height="305.5" transform="translate(22.74 -528.23) rotate(1.78)"/><rect class="cls-2" x="1970.75" y="549.92" width="58.5" height="305.5" transform="translate(-8.41 -442.19) rotate(-0.69)"/><rect class="cls-2" x="577.89" y="236.23" width="794" height="1039"/><rect class="cls-2" x="1602.89" y="335.23" width="794" height="1039"/><rect class="cls-2" x="2627.89" y="410.23" width="794" height="1039"/><g id="u9QWP8.tif"><image width="600" height="800" transform="translate(2724.89 522.73)" xlink:href="row11.png"/></g><g id="brEf9L.tif"><image id="Layer_0" data-name="Layer 0" width="1200" height="1600" transform="translate(674.89 355.73) scale(0.5)" xlink:href="row12.png"/></g><g id="bsZTj2.tif"><image id="Layer_0-2" data-name="Layer 0" width="1200" height="1600" transform="translate(1699.89 454.73) scale(0.5)" xlink:href="row13.png"/></g></svg>